<?xml version="1.0" encoding="utf-8"?>
<!-- Generator: Adobe Illustrator 27.5.0, SVG Export Plug-In . SVG Version: 6.00 Build 0)  -->
<svg version="1.1" xmlns="http://www.w3.org/2000/svg" xmlns:xlink="http://www.w3.org/1999/xlink" x="0px" y="0px"
	 viewBox="0 0 500 500" style="enable-background:new 0 0 500 500;" xml:space="preserve">
<g id="BACKGROUND">
	<rect style="fill:#F9F9FC;" width="500" height="500"/>
</g>
<g id="OBJECTS">
	<g>
		<defs>
			<rect id="SVGID_1_" width="500" height="500"/>
		</defs>
		<clipPath id="SVGID_00000117646076972793900790000014835751869784807562_">
			<use xlink:href="#SVGID_1_"  style="overflow:visible;"/>
		</clipPath>
		<g style="clip-path:url(#SVGID_00000117646076972793900790000014835751869784807562_);">
			<circle style="fill:#F9F9FC;" cx="253.064" cy="226.742" r="168.774"/>
			<path style="fill:#AAA5BA;" d="M91.968,230.581c0-91.091,73.844-164.935,164.935-164.935c90.45,0,163.881,72.811,164.911,163.017
				c0.007-0.64,0.024-1.278,0.024-1.92c0-93.211-75.563-168.774-168.774-168.774S84.29,133.531,84.29,226.742
				s75.563,168.774,168.774,168.774c0.642,0,1.28-0.017,1.92-0.024C164.779,394.462,91.968,321.03,91.968,230.581z"/>
			<g>
				
					<rect x="121.018" y="372.195" transform="matrix(0.8157 0.5784 -0.5784 0.8157 254.2348 -5.1567)" style="fill:#AAA5BA;" width="28.387" height="48.516"/>
				<path style="fill:#001552;" d="M132.876,375.209c6.182,7.391,12.918,14.3,20.145,20.667l7.801-11.001l-23.156-16.42
					L132.876,375.209z"/>
				<g>
					<polygon style="fill:#3919A4;" points="147.075,434.604 95.285,397.88 18.369,506.351 18.369,506.351 70.159,543.075 					"/>
					
						<rect x="33.449" y="472.042" transform="matrix(0.5784 -0.8157 0.8157 0.5784 -351.6102 285.0056)" style="fill:#001552;" width="132.974" height="21.283"/>
				</g>
				<path style="fill:#C0C0DE;" d="M253.064,37.839c-104.328,0-188.903,84.575-188.903,188.903
					c0,104.328,84.575,188.903,188.903,188.903s188.903-84.575,188.903-188.903C441.968,122.414,357.393,37.839,253.064,37.839z
					 M253.064,395.516c-93.211,0-168.774-75.563-168.774-168.774S159.853,57.968,253.064,57.968s168.774,75.563,168.774,168.774
					S346.276,395.516,253.064,395.516z"/>
				<path style="fill:#FFFFFF;" d="M86.121,428.087c-0.309,0-0.62-0.095-0.887-0.291c-0.668-0.49-0.811-1.43-0.321-2.097
					l11.071-15.07c0.491-0.669,1.43-0.811,2.097-0.321c0.668,0.49,0.811,1.43,0.321,2.097l-11.071,15.07
					C87.037,427.875,86.582,428.087,86.121,428.087z"/>
				<path style="fill:#FFFFFF;" d="M29.322,505.403c-0.309,0-0.62-0.095-0.887-0.291c-0.668-0.49-0.811-1.43-0.321-2.097
					l46.869-63.799c0.49-0.669,1.43-0.81,2.097-0.321c0.668,0.49,0.811,1.43,0.321,2.097l-46.869,63.799
					C30.238,505.191,29.783,505.403,29.322,505.403z"/>
			</g>
		</g>
	</g>
	<g>
		<path style="fill:#E2353F;" d="M323.711,41.905c-0.177,0-0.356-0.032-0.532-0.098c-22.375-8.487-45.965-12.791-70.114-12.791
			c-16.613,0-33.12,2.064-49.063,6.134c-0.805,0.205-1.62-0.28-1.825-1.082c-0.204-0.803,0.28-1.62,1.083-1.825
			c16.184-4.132,32.941-6.227,49.805-6.227c24.515,0,48.463,4.369,71.179,12.986c0.774,0.293,1.164,1.16,0.87,1.935
			C324.886,41.536,324.315,41.905,323.711,41.905z"/>
		<path style="fill:#E2353F;" d="M392.922,370.125c-0.388,0-0.774-0.149-1.068-0.447c-0.581-0.59-0.574-1.539,0.016-2.121
			c8.816-8.691,16.855-18.253,23.89-28.418c0.472-0.682,1.405-0.852,2.087-0.38c0.682,0.472,0.852,1.406,0.38,2.087
			c-7.142,10.318-15.301,20.024-24.251,28.848C393.683,369.981,393.302,370.125,392.922,370.125z"/>
		<path style="fill:#E2353F;" d="M253.064,427.468c-6.118,0-12.296-0.278-18.361-0.828c-0.825-0.075-1.434-0.805-1.358-1.63
			c0.075-0.824,0.813-1.427,1.629-1.358c5.976,0.542,12.063,0.816,18.091,0.816c42.392,0,82.806-13.217,116.873-38.222
			c0.667-0.489,1.605-0.348,2.097,0.321c0.49,0.668,0.347,1.606-0.321,2.097C337.127,414.05,296.099,427.468,253.064,427.468z"/>
		<path style="fill:#E2353F;" d="M60.309,316.929c-0.567,0-1.11-0.323-1.363-0.872c-12.946-28.091-19.51-58.141-19.51-89.314
			c0-11.468,0.917-22.978,2.725-34.211c0.131-0.818,0.903-1.38,1.719-1.243c0.818,0.132,1.375,0.901,1.243,1.719
			c-1.783,11.076-2.687,22.426-2.687,33.734c0,30.737,6.471,60.365,19.234,88.059c0.347,0.753,0.018,1.643-0.734,1.99
			C60.732,316.885,60.519,316.929,60.309,316.929z"/>
		<path style="fill:#E2353F;" d="M312.164,432.029c-0.65,0-1.25-0.427-1.44-1.083c-0.23-0.796,0.228-1.628,1.023-1.857
			c13.309-3.853,26.298-9.063,38.608-15.484c0.73-0.381,1.641-0.1,2.023,0.637c0.383,0.734,0.099,1.64-0.637,2.023
			c-12.485,6.513-25.66,11.797-39.16,15.705C312.443,432.011,312.303,432.029,312.164,432.029z"/>
	</g>
	<g>
		<polygon style="fill:#FFCD4C;" points="364.548,126.871 438.097,61.064 460.548,97.452 		"/>
		<polygon style="fill:#E2353F;" points="291.041,122.172 306.098,68.163 329.104,82.811 		"/>
		<polygon style="fill:#E2353F;" points="385.344,393.357 409.09,451.211 440.788,419.397 		"/>
		<polygon style="fill:#FFCD4C;" points="115.766,319.401 36.5,342.285 36.5,342.285 52.03,372.164 		"/>
		<polygon style="fill:#E2353F;" points="88.935,171 37.839,158.097 37.839,158.097 52.29,132.807 		"/>
	</g>
	<g>
		<circle style="fill:none;stroke:#3919A4;stroke-width:2;stroke-miterlimit:10;" cx="215.129" cy="463.387" r="9.548"/>
		
			<ellipse transform="matrix(0.2309 -0.973 0.973 0.2309 6.5166 711.5342)" style="fill:none;stroke:#3919A4;stroke-width:2;stroke-miterlimit:10;" cx="453.323" cy="351.645" rx="11.355" ry="11.355"/>
		<circle style="fill:#3919A4;" cx="32.677" cy="288.677" r="5.677"/>
		
			<ellipse transform="matrix(0.7071 -0.7071 0.7071 0.7071 -28.3355 55.2695)" style="fill:none;stroke:#3919A4;stroke-width:2;stroke-miterlimit:10;" cx="52.548" cy="61.839" rx="10.581" ry="10.581"/>
		<path style="fill:#3919A4;" d="M277.839,455.387c0,2.565-2.08,4.645-4.645,4.645c-2.565,0-4.645-2.08-4.645-4.645
			c0-2.565,2.08-4.645,4.645-4.645C275.759,450.742,277.839,452.822,277.839,455.387z"/>
		<path style="fill:#3919A4;" d="M380.032,31.645c0,2.28-1.849,4.129-4.129,4.129s-4.129-1.849-4.129-4.129
			c0-2.28,1.849-4.129,4.129-4.129S380.032,29.365,380.032,31.645z"/>
	</g>
	<g>
		<defs>
			<path id="SVGID_00000016046794610560418750000009028803689547589811_" d="M491,316.032l-5.161-154.322l-75.991,2.451
				c-24.86-62.226-85.684-106.193-156.783-106.193c-12.219,0-24.131,1.31-35.613,3.777V28.548l-57.29,1.032L97.193,40.419
				c0,0-11.355,44.387-8.258,64.516c1.41,9.163,10.735,21.963,20.476,33.19c-10.066,16.284-17.442,34.403-21.506,53.745
				c-3.946,0.538-7.526,1.295-9.293,2.355c-5.161,3.097-19.613,25.806-23.226,37.677s4.129,39.742,12.387,49.032
				c4.394,4.944,16.388,4.772,26.649,3.529c23.578,64.784,85.705,111.051,158.641,111.051c61.373,0,115.091-32.762,144.63-81.749
				L491,316.032z"/>
		</defs>
		<clipPath id="SVGID_00000071518211620316835370000003544350162699931567_">
			<use xlink:href="#SVGID_00000016046794610560418750000009028803689547589811_"  style="overflow:visible;"/>
		</clipPath>
		<g style="clip-path:url(#SVGID_00000071518211620316835370000003544350162699931567_);">
			<g>
				<path style="fill:#3919A4;" d="M307.65,412.16l-77.42,9.29l-14.71-35.61l-12.39,28.64l-5.58-2.23l-1.4-0.56l-62.7-25.08
					l6.2-29.03c0,0,139.74-24.77,143.22-19.35C286.35,343.65,307.65,412.16,307.65,412.16z"/>
				<path style="fill:#001552;" d="M289.747,356.552c-3.189-9.412-5.832-16.702-6.876-18.326
					c-3.484-5.419-143.226,19.355-143.226,19.355S246.773,363.08,289.747,356.552z"/>
				<path style="fill:#001552;" d="M209.26,379.12l-11.71,33.13l-1.4-0.56l11.69-33.07c0.14-0.39,0.57-0.59,0.96-0.46
					C209.19,378.3,209.39,378.73,209.26,379.12z"/>
				<path style="fill:#001552;" d="M194.742,399.621c-0.053,0-0.107-0.006-0.162-0.018c-0.404-0.089-0.66-0.489-0.571-0.893
					l3.355-15.226c0.089-0.404,0.485-0.658,0.894-0.571c0.404,0.089,0.66,0.489,0.571,0.894l-3.355,15.226
					C195.397,399.383,195.087,399.621,194.742,399.621z"/>
			</g>
			<g>
				<path style="fill:#E2353F;" d="M217.452,139.645c0,0,21.29,8.516,31.355,15.097c10.065,6.581,26.71,28.645,26.71,28.645
					l-33.29,10.452L217.452,139.645z"/>
				<g>
					<path style="fill:#E2353F;" d="M146.226,156.29c0,0-27.484,15.871-32.129,21.29c-4.645,5.419,16.258,86.71,19.742,99.871
						c3.484,13.161,5.807,80.129,5.807,80.129s110.322-3.871,150.193-17.032c0,0-12.387-31.742-15.871-48.774
						c-3.484-17.032-26.322-99.097-29.419-107.613c-3.097-8.516-19.742-42.194-27.097-44.516
						c-7.355-2.323-41.032,3.484-47.226,6.581C164.032,149.323,146.226,156.29,146.226,156.29z"/>
					<path style="fill:#3D0B34;" d="M224.419,235.258c0,0-67.036,14.897-95.662,22.305c2.32,9.314,4.226,16.658,5.081,19.889
						c0.821,3.102,1.578,9.196,2.255,16.695c28.711-9.502,103.81-44.566,103.81-44.566L224.419,235.258z"/>
					<path style="fill:#EAADA9;" d="M146.226,156.29c0,0-3.476,2.008-8.157,4.834c1.603,4.885,9.222,22.703,34.221,18.908
						c26.999-4.098,26.075-32.059,23.733-39.512c-10.96,1.544-22.433,4.024-25.797,5.706
						C164.032,149.323,146.226,156.29,146.226,156.29z"/>
					<path style="fill:#FFFFFF;" d="M170.412,189.42c-5.781,0-10.192-0.951-10.607-1.043c-0.404-0.09-0.659-0.491-0.568-0.895
						c0.09-0.404,0.494-0.659,0.895-0.569c0.23,0.052,23.093,4.963,33.509-8.059c2.34-2.924,4.304-5.927,5.838-8.924
						c0.189-0.369,0.642-0.516,1.009-0.326c0.369,0.188,0.515,0.641,0.326,1.009c-1.58,3.086-3.6,6.174-6.002,9.178
						C188.493,187.69,178.207,189.42,170.412,189.42z"/>
					<path style="fill:#FFFFFF;" d="M202.859,164.387c-0.072,0-0.146-0.01-0.219-0.032c-0.396-0.121-0.62-0.54-0.499-0.936
						c1.46-4.801,1.211-7.804,1.208-7.833c-0.037-0.412,0.267-0.777,0.678-0.815c0.414-0.029,0.776,0.264,0.815,0.676
						c0.013,0.132,0.288,3.297-1.267,8.409C203.478,164.178,203.181,164.387,202.859,164.387z"/>
					<path style="fill:#3D0B34;" d="M245.709,186.46c-0.312,0-0.603-0.195-0.709-0.506c-4.183-12.169-18.37-35.619-18.512-35.854
						c-0.215-0.355-0.102-0.815,0.252-1.03c0.353-0.216,0.815-0.103,1.03,0.252c0.144,0.237,14.414,23.825,18.649,36.146
						c0.134,0.392-0.074,0.818-0.466,0.953C245.873,186.446,245.79,186.46,245.709,186.46z"/>
				</g>
			</g>
			<g>
				<path style="fill:#591808;" d="M111.534,73.846c0,0-2.9,0.134-4.269,4.072c-1.368,3.938-2.091,13.465-0.708,18.246
					c1.383,4.78,10.033,20.075,10.033,20.075l-0.737-24.379L111.534,73.846z"/>
				<path style="fill:#FE656D;" d="M115.435,100.959c0,0-6.017-3.859-8.033,2.015c-2.016,5.874,2.472,17.887,11.288,19.983
					C118.69,122.958,120.559,111.223,115.435,100.959z"/>
				<path style="fill:#FE656D;" d="M179.307,97.233c0,0,4.663-5.616,7.915-1.542c3.253,4.074,2.059,18.537-8.619,22.304
					L179.307,97.233z"/>
				<path style="fill:#EAADA9;" d="M169.271,132.096c0,0,5.864,10.891,14.521,16.755c0,0-16.196,19.268-34.626,19.826
					c0,0-5.864-13.962-6.981-20.943C142.184,147.734,165.361,137.96,169.271,132.096z"/>
				<path style="fill:#FE656D;" d="M167.874,149.13c2.586-3.305,4.354-7.49,5.466-10.781c-2.582-3.491-4.07-6.253-4.07-6.253
					c-3.909,5.864-27.087,15.638-27.087,15.638c0.455,2.841,1.695,6.838,3.007,10.58C152.479,156.712,164.45,153.505,167.874,149.13
					z"/>
				<path style="fill:#EAADA9;" d="M179.789,79.921c1.016,12.448,1.504,29.199,0.715,34.147
					c-1.243,7.737-9.113,25.737-17.628,32.651c-6.803,5.535-10.617,6.382-11.784,6.473c-1.143,0.089-19.784-3.084-26.405-14.617
					c-3.661-6.422-5.598-10.391-6.372-14.498c0,0-3.555-26.932-4.299-30.347c-0.721-3.417-5.314-20.904,7.028-28.833
					c12.367-7.907,36.628-6.081,42.532-4.695c5.906,1.409,11.952,1.849,14.114,5.633c0.057,0.116,0.114,0.231,0.174,0.394
					C178.558,68.089,179.258,73.399,179.789,79.921z"/>
				<path style="fill:#360700;" d="M175.928,78.109c0,0,0.613,4.88,1.271,7.95c0.658,3.07,1.132,10.54,1.251,13.118
					c0.119,2.578,0.319,12.515,1.503,12.977c1.184,0.462,2.656-15.235,2.665-17.819c0.01-2.584,2.108-18.698,2.108-18.698
					L175.928,78.109z"/>
				<path style="fill:#E2353F;" d="M156.269,129.07c0,0-0.188,0.661-0.618,1.605c-1.053,2.165-3.503,5.781-8.393,5.73
					c-4.676-0.067-6.859-2.892-7.769-4.737c-0.453-0.899-0.6-1.558-0.6-1.558S147.984,131.558,156.269,129.07z"/>
				<path style="fill:#591808;" d="M160.428,104.696c0.175,2.257-0.52,4.152-1.553,4.232c-1.033,0.08-2.013-1.684-2.188-3.941
					c-0.175-2.257,0.52-4.151,1.553-4.231C159.273,100.675,160.253,102.439,160.428,104.696z"/>
				<path style="fill:#FFFFFF;" d="M138.889,130.11c0,0,0.147,0.659,0.6,1.558c0.132,0.268,0.294,0.557,0.484,0.854l1.342-0.61
					c3.554,0.407,9.737,0.71,14.336-1.237c0.43-0.944,0.618-1.605,0.618-1.605C147.984,131.558,138.889,130.11,138.889,130.11z"/>
				<path style="fill:#591808;" d="M137.792,106.456c0.175,2.257-0.52,4.152-1.553,4.232c-1.033,0.08-2.012-1.684-2.188-3.941
					c-0.175-2.257,0.52-4.151,1.552-4.231C136.637,102.435,137.617,104.199,137.792,106.456z"/>
				<path style="fill:#FE656D;" d="M144.359,120.383c0,0,1.835,0.558,3.641,0.475c1.805-0.083,4.559-0.532,4.559-0.532
					s-3.169,1.913-4.741,1.825C146.245,122.062,144.359,120.383,144.359,120.383z"/>
				<path style="fill:#591808;" d="M164.75,93.708c-0.104-0.079-0.227-0.141-0.344-0.209c-0.011-0.011-0.016-0.022-0.029-0.033
					c-0.69-0.544-1.668-0.831-2.519-0.994c-0.938-0.18-1.908-0.205-2.856-0.1c-0.051,0.006-0.101,0.02-0.152,0.026
					c-0.862,0.064-1.704,0.256-2.49,0.583c-0.041,0.014-0.084,0.022-0.125,0.037c-0.759,0.275-1.858,0.668-2.32,1.373
					c-0.064,0.097,0.034,0.244,0.146,0.23c0.39-0.048,0.73-0.269,1.09-0.415c0.384-0.156,0.763-0.325,1.152-0.469
					c0.855-0.319,1.746-0.545,2.653-0.648c0.375-0.043,0.754-0.058,1.132-0.06c0.65,0.063,1.295,0.17,1.923,0.35
					c0.842,0.242,1.584,0.7,2.405,0.967C164.765,94.46,165.041,93.929,164.75,93.708z"/>
				<path style="fill:#591808;" d="M129.633,95.328c0.096-0.088,0.213-0.161,0.323-0.24c0.01-0.012,0.014-0.024,0.025-0.035
					c0.637-0.605,1.585-0.981,2.417-1.221c0.918-0.265,1.881-0.379,2.835-0.362c0.051,0.001,0.102,0.01,0.154,0.012
					c0.864-0.016,1.721,0.098,2.534,0.352c0.042,0.01,0.086,0.014,0.128,0.025c0.781,0.204,1.912,0.494,2.436,1.153
					c0.072,0.091-0.011,0.246-0.125,0.243c-0.392-0.012-0.752-0.2-1.124-0.313c-0.397-0.12-0.79-0.253-1.19-0.361
					c-0.881-0.239-1.789-0.382-2.701-0.401c-0.378-0.008-0.756,0.012-1.133,0.044c-0.641,0.123-1.274,0.288-1.882,0.526
					c-0.816,0.318-1.513,0.843-2.306,1.184C129.687,96.078,129.363,95.575,129.633,95.328z"/>
				<path style="fill:#591808;" d="M116.431,115.6c0,0-0.23,6.211,1.328,6.397c1.559,0.186-0.111-24.796-0.111-24.796
					s2.193,2.741,2.895,1.158c0.702-1.582-1.566-11.553-1.566-11.553s7.274-4.727,14.702-6.103c7.428-1.376,28.773-0.681,34.48-0.17
					c5.707,0.512,17.171-2.988,24.457-7.457c6.164-3.781,11.066-18.876,12.797-25.642c0.285-1.114-0.846-2.057-1.888-1.57
					c-2.707,1.267-6.853,3.188-8.5,3.851c-7.441,2.996-24.887,3.731-24.149,2.922c0.738-0.809,1.194-2.122,0.409-2.344
					c-0.785-0.222-14.119,1.943-24.97,1.927c0,0-16.632-0.718-23.818,3.101c-7.187,3.819-13.234,15.53-11.321,23.385
					c1.912,7.856,3.229,20.944,3.179,22.716C114.307,103.194,116.431,115.6,116.431,115.6z"/>
				<path style="fill:#FFFFFF;" d="M154.127,74.908c-6.131,0-10.931-0.234-11.358-0.256c-0.414-0.021-0.732-0.373-0.711-0.787
					c0.02-0.414,0.382-0.723,0.787-0.711c0.23,0.012,23.047,1.125,33.651-1.527c0.483-0.121,0.955-0.245,1.416-0.371
					c0.4-0.108,0.812,0.127,0.921,0.526c0.109,0.399-0.126,0.812-0.526,0.921c-0.471,0.129-0.954,0.255-1.448,0.378
					C170.932,74.564,161.553,74.908,154.127,74.908z"/>
				<path style="fill:#FFFFFF;" d="M184.672,69.79c-0.288,0-0.563-0.166-0.687-0.447c-0.167-0.379,0.004-0.822,0.383-0.989
					c4.055-1.794,6.087-3.351,6.107-3.367c0.328-0.253,0.799-0.193,1.052,0.133c0.253,0.327,0.195,0.797-0.132,1.051
					c-0.087,0.068-2.178,1.678-6.421,3.554C184.876,69.77,184.773,69.79,184.672,69.79z"/>
			</g>
			<g>
				<path style="fill:#EAADA9;" d="M275.883,184.453c0,0-8.607-1.698-7.909-9.218c0,0,2.559-1.213,3.489-0.728
					c0.93,0.485,10.002,2.426,11.631,3.154c1.628,0.728,5.583,6.55,5.583,6.55S277.977,185.666,275.883,184.453z"/>
				<rect x="221.064" y="180.807" style="fill:#3919A4;" width="256.516" height="122.839"/>
				<path style="fill:#EAADA9;" d="M319.839,175.064c0,0,3.677-1.936,6-0.968c2.323,0.968,2.903,4.839,2.516,6.774
					c-0.387,1.936-4.452,13.548-7.355,12.387s-3.29-9.871-3.29-9.871L319.839,175.064z"/>
				<path style="fill:#EAADA9;" d="M308.226,174.677c0,0,5.032-3.677,7.355-3.677c2.323,0,4.645,4.452,5.032,5.613
					c0.387,1.161-1.935,16.645-2.323,18.194c-0.387,1.548-2.71,4.839-4.452,4.839c-1.742,0-5.419-6.581-5.419-8.71
					S308.226,174.677,308.226,174.677z"/>
				<path style="fill:#EAADA9;" d="M295.839,176.085c0,0,4.258-5.279,6.968-5.473c2.71-0.193,4.258,2.903,5.419,4.064
					c1.161,1.161-0.194,11.226-0.387,14.129c-0.193,2.903-2.903,13.548-5.419,14.322c-2.516,0.774-5.613-2.129-5.807-4.258
					c-0.193-2.129-1.548-15.484-1.548-15.484L295.839,176.085z"/>
				<path style="fill:#EAADA9;" d="M285.193,188.594c0,0-1.935-10.314-1.355-12.508c0.581-2.194,4.452-3.731,6.774-3.731
					s5.226,3.731,5.226,3.731s-0.193,14.045-0.968,17.336c-0.774,3.292-4.258,5.047-5.419,4.608
					C288.29,197.591,285.968,195.177,285.193,188.594z"/>
				
					<text transform="matrix(0.9999 0.0126 -0.0126 0.9999 260.4276 257.0789)" style="fill:#F9F9FC; font-family:'Montserrat-SemiBold'; font-size:40.5331px;">JOIN US!</text>
			</g>
			<g>
				<path style="fill:#3D0B34;" d="M76.161,228.29c0,0,1.355,10.727,12.193,11.751c10.839,1.024,11.226-15.363,11.226-15.363
					S85.064,219.968,76.161,228.29z"/>
				<path style="fill:#EAADA9;" d="M124.806,221.323c-1.548-0.774-19.871-25.032-30.194-8c-2.694,4.445-5.35,10.139-7.809,16.126
					l0-0.001c0,0-9.481,21.036-11.03,26.714c-1.548,5.677-1.29,9.548-1.29,9.548l52.903-18.581l0.258-8
					C127.645,239.129,126.355,222.097,124.806,221.323z"/>
				<path style="fill:#E2353F;" d="M114.097,177.581c0,0-28.258,27.484-37.935,50.71c0,0,27.097-7.411,51.484,11.751
					c0,0,6.194-29.17,4.645-37.686C130.742,193.839,114.097,177.581,114.097,177.581z"/>
				<path style="fill:#3D0B34;" d="M129.194,234.976c-0.069,0-0.139-0.009-0.209-0.03c-0.398-0.115-0.627-0.531-0.512-0.929
					c0.056-0.195,5.637-19.626,5.133-30.725c-0.019-0.414,0.301-0.765,0.715-0.783c0.428-0.005,0.765,0.302,0.783,0.715
					c0.516,11.348-4.957,30.404-5.19,31.21C129.819,234.762,129.519,234.976,129.194,234.976z"/>
				<path style="fill:#3D0B34;" d="M131.774,225.427c-0.164,0-0.33-0.054-0.468-0.165c-0.323-0.259-0.376-0.73-0.117-1.054
					l6.193-7.742c0.257-0.324,0.73-0.376,1.054-0.117c0.323,0.259,0.376,0.73,0.117,1.054l-6.193,7.742
					C132.212,225.331,131.994,225.427,131.774,225.427z"/>
				<path style="fill:#EAADA9;" d="M74.484,265.71c0,0,9.29,8.516,14.452,10.065S170.484,265.71,211,249.968l-3.097-18.322
					c0,0-48,6.193-56.516,6.71c-8.516,0.516-39.484,0.258-53.419,7.484C84.032,253.064,74.484,261.065,74.484,265.71z"/>
				<path style="fill:#FE656D;" d="M80.295,258.099c-0.197,0-0.394-0.077-0.541-0.23c-0.287-0.3-0.277-0.773,0.021-1.061
					c0.166-0.16,16.947-16.002,42.191-17.515c0.419-0.021,0.769,0.291,0.794,0.704c0.025,0.414-0.29,0.769-0.704,0.794
					c-24.675,1.479-41.079,16.944-41.242,17.1C80.669,258.029,80.482,258.099,80.295,258.099z"/>
				<path style="fill:#EAADA9;" d="M207.132,231.804c0,0,5.232-7.063,9.417-10.202c4.186-3.139,10.987-12.557,12.033-15.696
					c1.046-3.139,1.046-4.709,2.354-4.97s3.924,1.308,4.447,3.662s-1.308,7.325-1.831,9.417c-0.523,2.093,0.262,3.662,0.262,3.662
					s23.544-4.186,29.299-5.493c5.755-1.308,11.51-2.354,12.818-0.785c1.308,1.57,1.57,3.139,0,4.186
					c-1.57,1.046-17.527,6.017-17.527,6.017s2.616,4.709,1.831,6.278c-0.785,1.57-3.139,4.186-3.139,4.186s2.616,2.616,1.308,4.97
					c-1.308,2.354-3.401,3.662-3.401,3.662s0,4.709-1.831,6.278c-1.831,1.57-3.401,2.093-9.156,3.139
					c-5.755,1.046-29.037,0.523-33.746,0.262C205.563,250.116,207.132,231.804,207.132,231.804z"/>
			</g>
		</g>
	</g>
</g>
</svg>
